<?xml version="1.0" standalone="no"?>
<!DOCTYPE svg PUBLIC "-//W3C//DTD SVG 20010904//EN"
 "http://www.w3.org/TR/2001/REC-SVG-20010904/DTD/svg10.dtd">
<svg version="1.0" xmlns="http://www.w3.org/2000/svg"
 width="100.000000pt" height="30.000000pt" viewBox="0 25 280.72 110.59"
 preserveAspectRatio="xMidYMid meet">

<g transform="translate(0.000000,200.000000) scale(0.100000,-0.100000)"
fill="#ff5722" stroke="none">
<path d="M605 1367 c-22 -11 -41 -23 -43 -28 -2 -5 -11 -9 -21 -9 -24 0 -63
-29 -55 -42 7 -12 -14 -28 -36 -28 -12 1 -11 3 3 11 9 5 17 15 17 21 0 6 -9 3
-20 -7 -11 -10 -17 -21 -14 -26 2 -4 -35 -35 -83 -67 -49 -33 -95 -68 -103
-78 -9 -12 -1 -8 22 9 20 15 41 27 47 27 6 0 11 4 11 8 0 13 177 108 253 137
59 22 97 25 97 7 0 -3 -14 -20 -30 -37 l-30 -31 22 -21 23 -21 58 51 c64 58
66 73 14 99 -90 46 -89 46 -132 25z"/>
<path d="M1175 1359 c-64 -33 -185 -121 -224 -163 -14 -14 -32 -26 -40 -26
-36 0 -93 -23 -141 -56 -36 -25 -55 -32 -64 -25 -8 7 -15 2 -24 -17 -6 -15
-23 -39 -36 -53 -13 -14 -34 -45 -45 -67 -17 -34 -19 -45 -9 -67 11 -24 38
-35 38 -15 0 23 62 139 95 177 34 40 98 84 143 98 19 5 23 3 20 -11 -4 -22 39
-46 67 -38 11 4 31 16 45 29 14 12 40 30 57 39 18 9 49 27 69 41 48 33 61 32
34 -2 -26 -35 -154 -223 -164 -243 -9 -17 42 35 183 189 51 56 106 108 122
117 36 18 38 49 4 58 -28 7 -84 -22 -78 -41 3 -7 0 -13 -5 -13 -6 0 -38 -16
-72 -35 -67 -38 -90 -44 -69 -19 9 12 3 10 -21 -5 -40 -24 -50 -26 -50 -8 1
16 119 103 173 128 23 10 51 19 63 19 28 0 36 10 23 27 -16 19 -26 17 -94 -18z"/>
<path d="M1700 1350 c-35 -12 -328 -42 -340 -35 -6 3 -10 0 -10 -8 0 -16 37
-34 65 -31 11 1 44 7 74 13 76 15 116 15 103 -2 -8 -9 -119 -67 -138 -72 -1 0
-5 -10 -8 -23 -10 -31 14 -38 56 -17 45 22 106 38 150 38 30 1 35 4 26 15 -9
10 -7 12 13 9 13 -2 39 -10 57 -17 32 -12 33 -15 28 -49 -8 -45 -78 -114 -159
-156 -71 -37 -67 -45 5 -10 81 40 161 97 178 128 13 24 13 30 0 55 -18 32 -73
60 -124 64 -55 3 -43 24 29 49 60 22 63 25 48 41 -18 20 -18 20 -53 8z"/>
<path d="M400 1250 c-9 -6 -10 -10 -3 -10 6 0 15 5 18 10 8 12 4 12 -15 0z"/>
<path d="M270 1179 c-22 -18 -22 -19 -3 -10 12 6 25 16 28 21 9 15 3 12 -25
-11z"/>
<path d="M1368 1033 c6 -2 18 -2 25 0 6 3 1 5 -13 5 -14 0 -19 -2 -12 -5z"/>
<path d="M1265 1010 c-27 -11 -59 -20 -70 -20 -26 0 -95 -47 -95 -64 0 -8 6
-19 14 -25 12 -10 13 -9 9 8 -4 17 6 25 58 50 35 16 83 35 107 42 23 7 42 16
42 21 0 11 -8 10 -65 -12z"/>
<path d="M135 995 c-3 -8 -7 -22 -10 -31 -5 -17 45 -73 67 -75 64 -5 77 -2
198 38 41 14 81 27 89 29 8 3 11 7 9 10 -3 3 -32 -2 -64 -10 -95 -23 -238 -25
-268 -3 -15 11 -17 17 -7 35 8 15 8 22 1 22 -6 0 -13 -7 -15 -15z"/>
<path d="M1178 883 c12 -2 30 -2 40 0 9 3 -1 5 -23 4 -22 0 -30 -2 -17 -4z"/>
</g>
</svg>
